<?xml version="1.0" encoding="utf-8"?>
<!-- Generator: Adobe Illustrator 16.0.0, SVG Export Plug-In . SVG Version: 6.00 Build 0)  -->
<!DOCTYPE svg PUBLIC "-//W3C//DTD SVG 1.1//EN" "http://www.w3.org/Graphics/SVG/1.1/DTD/svg11.dtd">
<svg version="1.1" id="Layer_1" xmlns="http://www.w3.org/2000/svg" xmlns:xlink="http://www.w3.org/1999/xlink" x="0px" y="0px"
	 width="250px" height="250px" viewBox="175.5 1075.5 250 250" enable-background="new 175.5 1075.5 250 250" xml:space="preserve">
<path id="burst-4" fill-opacity="0.8" stroke="#000000" stroke-width="11.5" stroke-miterlimit="10" d="M300.499,1088.01
	c-63.517,0-114.999,51.547-114.999,115.14c0,57.872,42.61,105.746,98.168,113.907v-47.38h29.39c27.37,0,43.339-14.719,43.339-37.15
	c0-17.42-9.936-29.653-26.413-33.619c11.2-4.012,16.431-13.191,16.431-25.425c0-17.219-12.944-31.675-37.598-31.675h-49.832v143.574
	c-29.948-15.244-50.498-46.329-50.498-82.232c0-50.865,41.192-92.12,92.013-92.12s92.014,41.255,92.014,92.152
	c0,48.228-37.043,87.801-84.222,91.766v23.098c59.892-4.074,107.209-53.906,107.209-114.896
	C415.5,1139.557,364.018,1088.01,300.499,1088.01z M283.668,1162.959h22.895c9.968,0,15.181,5.493,15.181,13.716
	c0,8.517-4.981,13.747-14.146,13.747h-23.929V1162.959z M283.668,1210.832h27.4c13.453,0,19.887,7.746,19.887,18.686
	c0,11.23-6.233,18.946-19.887,18.946h-27.4V1210.832z"/>
</svg>
