<?xml version="1.0" encoding="utf-8"?>
<!-- Generator: Adobe Illustrator 16.0.0, SVG Export Plug-In . SVG Version: 6.00 Build 0)  -->
<!DOCTYPE svg PUBLIC "-//W3C//DTD SVG 1.1//EN" "http://www.w3.org/Graphics/SVG/1.1/DTD/svg11.dtd">
<svg version="1.1" id="Layer_1" xmlns="http://www.w3.org/2000/svg" xmlns:xlink="http://www.w3.org/1999/xlink" x="0px" y="0px"
	 width="250px" height="250px" viewBox="175.5 1075.5 250 250" enable-background="new 175.5 1075.5 250 250" xml:space="preserve">
<g id="burst-1-group">
	<path class="burst-1" id="burst-1" stroke="#05BDCD" stroke-width="5" stroke-miterlimit="10" d="M279.088,1100.252l9.58,143.162H300.5h12.081l9.331-143.162
		H279.088z"/>
	<circle class="burst-1" id="circle" stroke="#05BDCD" stroke-width="5" stroke-miterlimit="10" cx="300.5" cy="1280.803" r="25"/>
<ellipse fill="none" cx="300.5" cy="1249.608" rx="0" ry="6.194"/>
</g>

<path id="burst-2" fill="none" stroke="#05BDCD" stroke-width="10.7059" stroke-miterlimit="10" d="M300.499,1093.425
	c-59.129,0-107.059,47.994-107.059,107.184c0,53.883,39.664,98.453,91.391,106.041v-44.107h27.358
	c25.476,0,40.343-13.693,40.343-34.574c0-16.227-9.252-27.606-24.582-31.308c10.425-3.732,15.298-12.276,15.298-23.657
	c0-16.039-12.06-29.487-35.007-29.487h-46.389v133.646c-27.884-14.188-47.007-43.119-47.007-76.553
	c0-47.346,38.338-85.746,85.653-85.746c47.313,0,85.654,38.4,85.654,85.777c0,44.908-34.484,81.734-78.406,85.438v21.498
	c55.766-3.795,99.813-50.184,99.813-106.967C407.56,1141.419,359.627,1093.425,300.499,1093.425z M284.831,1163.194h21.313
	c9.284,0,14.127,5.12,14.127,12.77c0,7.927-4.627,12.801-13.171,12.801h-22.269V1163.194z M284.831,1207.763h25.508
	c12.522,0,18.506,7.217,18.506,17.396c0,10.455-5.799,17.643-18.506,17.643h-25.508V1207.763z"/>

<path  id="burst-3" fill="none" stroke="#05BDCD" stroke-width="0.5353" stroke-miterlimit="10" d="M300.5,1095.951
	c-59.128,0-107.06,47.994-107.06,107.183c0,53.885,39.665,98.455,91.392,106.043v-44.107h27.357
	c25.477,0,40.345-13.695,40.345-34.576c0-16.225-9.254-27.605-24.582-31.308c10.425-3.732,15.298-12.275,15.298-23.656
	c0-16.039-12.06-29.488-35.007-29.488h-46.391v133.647c-27.883-14.189-47.007-43.119-47.007-76.555
	c0-47.345,38.34-85.746,85.654-85.746s85.653,38.401,85.653,85.777c0,44.908-34.483,81.736-78.404,85.438v21.5
	c55.766-3.795,99.811-50.184,99.811-106.969C407.56,1143.945,359.629,1095.951,300.5,1095.951z M284.832,1165.721h21.313
	c9.283,0,14.126,5.119,14.126,12.77c0,7.926-4.627,12.801-13.171,12.801h-22.269V1165.721z M284.832,1210.288h25.507
	c12.523,0,18.508,7.219,18.508,17.398c0,10.455-5.8,17.643-18.508,17.643h-25.507V1210.288z"/>

<path  id="burst-4" fill-opacity="0.8" stroke="#000000" stroke-width="11.5" stroke-miterlimit="10" d="M300.499,1088.01
	c-63.517,0-114.999,51.547-114.999,115.14c0,57.872,42.61,105.746,98.168,113.907v-47.38h29.39c27.37,0,43.339-14.719,43.339-37.15
	c0-17.42-9.936-29.653-26.413-33.619c11.2-4.012,16.431-13.191,16.431-25.425c0-17.219-12.944-31.675-37.598-31.675h-49.832v143.574
	c-29.948-15.244-50.498-46.329-50.498-82.232c0-50.865,41.192-92.12,92.013-92.12s92.014,41.255,92.014,92.152
	c0,48.228-37.043,87.801-84.222,91.766v23.098c59.892-4.074,107.209-53.906,107.209-114.896
	C415.5,1139.557,364.018,1088.01,300.499,1088.01z M283.668,1162.959h22.895c9.968,0,15.181,5.493,15.181,13.716
	c0,8.517-4.981,13.747-14.146,13.747h-23.929V1162.959z M283.668,1210.832h27.4c13.453,0,19.887,7.746,19.887,18.686
	c0,11.23-6.233,18.946-19.887,18.946h-27.4V1210.832z"/>

<path  id="burst-5" d="M300.5,1095.951c-59.127,0-107.06,47.994-107.06,107.184c0,53.883,39.666,98.453,91.391,106.041v-44.107h27.358
	c25.478,0,40.344-13.693,40.344-34.574c0-16.227-9.252-27.607-24.582-31.309c10.425-3.732,15.299-12.275,15.299-23.657
	c0-16.038-12.06-29.487-35.008-29.487h-46.391v133.646c-27.882-14.188-47.006-43.119-47.006-76.553
	c0-47.347,38.34-85.747,85.654-85.747c47.313,0,85.654,38.4,85.654,85.777c0,44.909-34.485,81.735-78.406,85.438v21.498
	c55.766-3.795,99.812-50.184,99.812-106.967C407.56,1143.945,359.629,1095.951,300.5,1095.951z M284.831,1165.721h21.313
	c9.283,0,14.127,5.119,14.127,12.77c0,7.926-4.628,12.8-13.172,12.8h-22.269V1165.721z M284.831,1210.289h25.509
	c12.523,0,18.506,7.217,18.506,17.396c0,10.455-5.798,17.643-18.506,17.643h-25.509V1210.289z"/>
</svg>