<svg version="1.1" id="Layer_1" xmlns="http://www.w3.org/2000/svg" xmlns:xlink="http://www.w3.org/1999/xlink" x="0px" y="0px"
	 width="7200px" height="227.673px" viewBox="-3225.234 482.826 7200 227.673"
	 style="enable-background:new -3225.234 482.826 7200 227.673;" xml:space="preserve">
<path d="M-2193.655,666.102v16.395l24.088,21.598v-37.992H-2193.655z M-2193.655,532.613v111.348h24.088V532.613H-2193.655z"/>
<path d="M-1953.039,662.965v15.516l24.624,28.568v-44.084H-1953.039z M-1953.039,536.628v105.383h24.624V536.628H-1953.039z"/>
<path d="M-1711.36,659.882v14.653l23.034,30.016v-44.669H-1711.36z M-1711.36,540.574v99.52h23.034v-99.52H-1711.36z"/>
<path d="M-1470.477,659.882v14.653l23.035,30.016v-44.669H-1470.477z M-1470.477,540.574v99.52h23.035v-99.52H-1470.477z"/>
<path d="M-3166.558,682.83v21.078h42.823V682.83H-3166.558z M-3166.558,511.201v143.163h42.823V511.201H-3166.558z"/>
<path d="M-2922.997,678.647v19.907l37.47,2.673v-22.58H-2922.997z M-2922.997,516.554v135.208h37.47V516.554H-2922.997z"/>
<path d="M-2679.438,674.465v18.737l32.117,5.884v-24.621H-2679.438z M-2679.438,521.907v127.255h32.117V521.907H-2679.438z"/>
<path d="M-2435.877,670.283v17.565l26.765,13.379v-30.944H-2435.877z M-2435.877,527.26v119.301h26.765V527.26H-2435.877z"/>
<path style="fill:none;" d="M-3010.613,597.803c0,56.918-44.148,103.416-100.046,107.219v-21.553
	c44.024-3.707,78.588-40.622,78.588-85.634c0-47.491-38.428-85.983-85.854-85.983c-47.426,0-85.854,38.492-85.854,85.951
	c0,33.513,19.166,62.515,47.115,76.732l23.035,29.559c-51.848-7.608-91.606-52.28-91.606-106.291
	c0-59.333,48.042-107.434,107.31-107.434C-3058.656,490.369-3010.613,538.47-3010.613,597.803z"/>
<path style="fill:none;" d="M-2769.729,597.803c0,56.918-44.148,103.416-100.046,107.219v-21.553
	c44.025-3.707,78.589-40.622,78.589-85.634c0-47.491-38.428-85.983-85.854-85.983c-47.426,0-85.854,38.492-85.854,85.951
	c0,33.513,19.165,62.515,47.114,76.732l23.035,29.559c-51.848-7.608-91.606-52.28-91.606-106.291
	c0-59.333,48.042-107.434,107.311-107.434C-2817.772,490.369-2769.729,538.47-2769.729,597.803z"/>
<path style="fill:none;" d="M-2528.846,597.803c0,56.918-44.148,103.416-100.046,107.219v-21.553
	c44.024-3.707,78.59-40.622,78.59-85.634c0-47.491-38.428-85.983-85.854-85.983c-47.427,0-85.854,38.492-85.854,85.951
	c0,33.513,19.167,62.515,47.115,76.732l23.034,29.559c-51.847-7.608-91.606-52.28-91.606-106.291
	c0-59.333,48.043-107.434,107.311-107.434S-2528.846,538.47-2528.846,597.803z"/>
<path style="fill:none;" d="M-2287.962,597.803c0,56.918-44.148,103.416-100.046,107.219v-21.553
	c44.025-3.707,78.59-40.622,78.59-85.634c0-47.491-38.428-85.983-85.854-85.983c-47.427,0-85.854,38.492-85.854,85.951
	c0,33.513,19.166,62.515,47.114,76.732l23.035,29.559c-51.847-7.608-91.606-52.28-91.606-106.291
	c0-59.333,48.043-107.434,107.312-107.434S-2287.962,538.47-2287.962,597.803z"/>
<path style="fill:none;" d="M-2047.078,597.803c0,56.918-44.148,103.416-100.046,107.219v-21.553
	c44.024-3.707,78.589-40.622,78.589-85.634c0-47.491-38.428-85.983-85.854-85.983c-47.426,0-85.854,38.492-85.854,85.951
	c0,33.513,19.165,62.515,47.114,76.732l23.034,29.559c-51.847-7.608-91.605-52.28-91.605-106.291
	c0-59.333,48.043-107.434,107.311-107.434S-2047.078,538.47-2047.078,597.803z"/>
<path style="fill:none;" d="M-1806.194,597.803c0,56.918-44.147,103.416-100.045,107.219v-21.553
	c44.024-3.707,78.589-40.622,78.589-85.634c0-47.491-38.429-85.983-85.855-85.983c-47.426,0-85.854,38.492-85.854,85.951
	c0,33.513,19.166,62.515,47.115,76.732l23.034,29.559c-51.848-7.608-91.606-52.28-91.606-106.291
	c0-59.333,48.044-107.434,107.311-107.434C-1854.237,490.369-1806.194,538.47-1806.194,597.803z"/>
<rect x="-3156.663" y="640.094" style="fill:none;" width="23.035" height="19.788"/>
<rect x="-2915.78" y="640.094" style="fill:none;" width="23.035" height="19.788"/>
<rect x="-2674.896" y="640.094" style="fill:none;" width="23.034" height="19.788"/>
<rect x="-2434.012" y="640.094" style="fill:none;" width="23.035" height="19.788"/>
<rect x="-2193.128" y="640.094" style="fill:none;" width="23.034" height="19.788"/>
<rect x="-1952.244" y="640.094" style="fill:none;" width="23.034" height="19.788"/>
<path style="fill:none;" d="M-3065.765,625.227c0,20.931-14.905,34.655-40.44,34.655h-27.423v-19.788h25.566
	c12.738,0,18.549-7.2,18.549-17.685c0-10.201-5.993-17.432-18.549-17.432h-25.566v-19.049h22.32c8.563,0,13.205-4.882,13.205-12.828
	c0-7.668-4.856-12.802-14.166-12.802h-21.36v-19.724h23.463c23.002,0,35.09,13.483,35.09,29.559c0,11.407-4.883,19.97-15.334,23.71
	C-3075.042,597.556-3065.765,608.964-3065.765,625.227z"/>
<path style="fill:none;" d="M-2824.882,625.227c0,20.931-14.905,34.655-40.44,34.655h-27.423v-19.788h25.566
	c12.738,0,18.548-7.2,18.548-17.685c0-10.201-5.993-17.432-18.548-17.432h-25.566v-19.049h22.32c8.564,0,13.206-4.882,13.206-12.828
	c0-7.668-4.856-12.802-14.165-12.802h-21.36v-19.724h23.463c23.002,0,35.091,13.483,35.091,29.559
	c0,11.407-4.883,19.97-15.334,23.71C-2834.159,597.556-2824.882,608.964-2824.882,625.227z"/>
<path style="fill:none;" d="M-2583.998,625.227c0,20.931-14.905,34.655-40.44,34.655h-27.423v-19.788h25.567
	c12.738,0,18.549-7.2,18.549-17.685c0-10.201-5.994-17.432-18.549-17.432h-25.567v-19.049h22.32c8.564,0,13.205-4.882,13.205-12.828
	c0-7.668-4.855-12.802-14.165-12.802h-21.36v-19.724h23.463c23.002,0,35.09,13.483,35.09,29.559c0,11.407-4.883,19.97-15.334,23.71
	C-2593.275,597.556-2583.998,608.964-2583.998,625.227z"/>
<path style="fill:none;" d="M-2343.114,625.227c0,20.931-14.905,34.655-40.44,34.655h-27.423v-19.788h25.566
	c12.739,0,18.549-7.2,18.549-17.685c0-10.201-5.994-17.432-18.549-17.432h-25.566v-19.049h22.32c8.564,0,13.205-4.882,13.205-12.828
	c0-7.668-4.856-12.802-14.165-12.802h-21.36v-19.724h23.463c23.003,0,35.091,13.483,35.091,29.559
	c0,11.407-4.883,19.97-15.335,23.71C-2352.391,597.556-2343.114,608.964-2343.114,625.227z"/>
<path style="fill:none;" d="M-2102.23,625.227c0,20.931-14.906,34.655-40.441,34.655h-27.423v-19.788h25.567
	c12.738,0,18.549-7.2,18.549-17.685c0-10.201-5.993-17.432-18.549-17.432h-25.567v-19.049h22.321
	c8.563,0,13.205-4.882,13.205-12.828c0-7.668-4.856-12.802-14.165-12.802h-21.361v-19.724h23.464
	c23.002,0,35.091,13.483,35.091,29.559c0,11.407-4.883,19.97-15.334,23.71C-2111.507,597.556-2102.23,608.964-2102.23,625.227z"/>
<path style="fill:none;" d="M-1861.347,625.227c0,20.931-14.905,34.655-40.44,34.655h-27.423v-19.788h25.566
	c12.738,0,18.55-7.2,18.55-17.685c0-10.201-5.994-17.432-18.55-17.432h-25.566v-19.049h22.321c8.563,0,13.204-4.882,13.204-12.828
	c0-7.668-4.856-12.802-14.165-12.802h-21.36v-19.724h23.464c23.001,0,35.09,13.483,35.09,29.559c0,11.407-4.883,19.97-15.334,23.71
	C-1870.624,597.556-1861.347,608.964-1861.347,625.227z"/>
<path d="M-1229.502,659.736v14.618l22.981,29.491v-44.109H-1229.502z"/>
<rect x="-1229.502" y="540.708" width="22.981" height="99.288"/>
<rect x="-988.618" y="639.995" width="22.98" height="19.741"/>
<rect x="-747.734" y="639.995" width="22.98" height="19.741"/>
<rect x="-506.851" y="639.995" width="22.981" height="19.741"/>
<rect x="-265.968" y="639.995" width="22.981" height="19.741"/>
<rect x="-25.083" y="639.995" width="22.979" height="19.741"/>
<rect x="215.8" y="639.995" width="22.981" height="19.741"/>
<rect x="456.685" y="639.995" width="22.98" height="19.741"/>
<rect x="697.568" y="639.995" width="22.98" height="19.741"/>
<rect x="938.452" y="639.995" width="22.981" height="19.741"/>
<rect x="1179.336" y="639.995" width="22.981" height="19.741"/>
<rect x="1420.219" y="639.995" width="22.981" height="19.741"/>
<rect x="1661.103" y="639.995" width="22.98" height="19.741"/>
<rect x="-988.618" y="540.708" width="22.98" height="99.288"/>
<rect x="-747.734" y="540.708" width="22.98" height="99.288"/>
<rect x="-506.851" y="540.708" width="22.981" height="99.288"/>
<rect x="-265.968" y="540.708" width="22.981" height="99.288"/>
<rect x="-25.083" y="540.708" width="22.979" height="99.288"/>
<rect x="215.8" y="540.708" width="22.981" height="99.288"/>
<rect x="456.685" y="540.708" width="22.98" height="99.288"/>
<rect x="697.568" y="540.708" width="22.98" height="99.288"/>
<rect x="938.452" y="540.708" width="22.981" height="99.288"/>
<rect x="1179.336" y="540.708" width="22.981" height="99.288"/>
<rect x="1420.219" y="540.708" width="22.981" height="99.288"/>
<rect x="1661.103" y="540.708" width="22.98" height="99.288"/>
<polygon points="-965.638,659.736 -965.638,703.846 -988.618,674.354 -988.618,659.736 "/>
<polygon points="-724.754,659.736 -724.754,703.846 -747.734,674.354 -747.734,659.736 "/>
<polygon points="-483.87,659.736 -483.87,703.846 -506.851,674.354 -506.851,659.736 "/>
<polygon points="-242.987,659.736 -242.987,703.846 -265.968,674.354 -265.968,659.736 "/>
<polygon points="-2.104,659.736 -2.104,703.846 -25.083,674.354 -25.083,659.736 "/>
<polygon points="238.781,659.736 238.781,703.846 215.8,674.354 215.8,659.736 "/>
<polygon points="479.665,659.736 479.665,703.846 456.685,674.354 456.685,659.736 "/>
<polygon points="720.549,659.736 720.549,703.846 697.568,674.354 697.568,659.736 "/>
<polygon points="961.434,659.736 961.434,703.846 938.452,674.354 938.452,659.736 "/>
<polygon points="1202.317,659.736 1202.317,703.846 1179.336,674.354 1179.336,659.736 "/>
<polygon points="1443.2,659.736 1443.2,703.846 1420.219,674.354 1420.219,659.736 "/>
<polygon points="1684.083,659.736 1684.083,703.846 1661.103,674.354 1661.103,659.736 "/>
<path style="fill:none;" d="M-657.05,625.162c0,20.882-14.87,34.574-40.346,34.574h-27.358v-19.741h25.506
	c12.708,0,18.506-7.185,18.506-17.644c0-10.178-5.98-17.392-18.506-17.392h-25.506v-19.003h22.268
	c8.544,0,13.174-4.872,13.174-12.799c0-7.649-4.845-12.772-14.132-12.772h-21.31v-19.677h23.409
	c22.947,0,35.008,13.452,35.008,29.49c0,11.38-4.872,19.923-15.299,23.654C-666.305,597.556-657.05,608.936-657.05,625.162z"/>
<path style="fill:none;" d="M-416.166,625.162c0,20.882-14.871,34.574-40.346,34.574h-27.358v-19.741h25.507
	c12.708,0,18.506-7.185,18.506-17.644c0-10.178-5.98-17.392-18.506-17.392h-25.507v-19.003h22.269
	c8.543,0,13.173-4.872,13.173-12.799c0-7.649-4.844-12.772-14.132-12.772h-21.31v-19.677h23.409
	c22.948,0,35.008,13.452,35.008,29.49c0,11.38-4.871,19.923-15.3,23.654C-425.422,597.556-416.166,608.936-416.166,625.162z"/>
<path style="fill:none;" d="M-175.282,625.162c0,20.882-14.871,34.574-40.346,34.574h-27.359v-19.741h25.507
	c12.708,0,18.505-7.185,18.505-17.644c0-10.178-5.98-17.392-18.505-17.392h-25.507v-19.003h22.269
	c8.543,0,13.173-4.872,13.173-12.799c0-7.649-4.844-12.772-14.131-12.772h-21.311v-19.677h23.409
	c22.948,0,35.009,13.452,35.009,29.49c0,11.38-4.872,19.923-15.3,23.654C-184.538,597.556-175.282,608.936-175.282,625.162z"/>
<path style="fill:none;" d="M65.602,625.162c0,20.882-14.87,34.574-40.345,34.574h-27.36v-19.741h25.508
	c12.708,0,18.505-7.185,18.505-17.644c0-10.178-5.979-17.392-18.505-17.392H-2.104v-19.003h22.27
	c8.543,0,13.173-4.872,13.173-12.799c0-7.649-4.844-12.772-14.131-12.772H-2.104v-19.677h23.409
	c22.949,0,35.009,13.452,35.009,29.49c0,11.38-4.872,19.923-15.299,23.654C56.347,597.556,65.602,608.936,65.602,625.162z"/>
<path style="fill:none;" d="M547.37,625.162c0,20.882-14.871,34.574-40.346,34.574h-27.359v-19.741h25.506
	c12.708,0,18.506-7.185,18.506-17.644c0-10.178-5.979-17.392-18.506-17.392h-25.506v-19.003h22.268
	c8.544,0,13.175-4.872,13.175-12.799c0-4.432-1.627-8.019-4.808-10.246l11.9-18.195c10.47,5.155,15.882,14.737,15.882,25.481
	c0,11.38-4.872,19.923-15.299,23.654C538.114,597.556,547.37,608.936,547.37,625.162z"/>
<path d="M522.2,544.717l-11.9,18.195c-2.301-1.622-5.417-2.527-9.325-2.527h-21.31v-19.677h23.409
	C510.653,540.708,517.04,542.174,522.2,544.717z"/>
<path style="fill:none;" d="M788.252,625.162c0,20.882-14.869,34.574-40.344,34.574h-27.359v-19.741h25.506
	c12.71,0,18.506-7.185,18.506-17.644c0-10.178-5.979-17.392-18.506-17.392h-25.506v-19.003h22.268L764,593.729
	c-0.115,0.043-0.222,0.086-0.333,0.124c0.952,0.229,1.878,0.487,2.782,0.776l0.033,0.011
	C780.122,599.002,788.252,609.954,788.252,625.162z"/>
<path d="M778.966,570.198c0,11.257-4.769,19.741-14.966,23.531l-21.184-7.772c8.544,0,13.175-4.872,13.175-12.799
	c0-7.649-4.845-12.772-14.132-12.772h-21.311v-19.677h23.408C766.905,540.708,778.966,554.16,778.966,570.198z"/>
<path style="fill:none;" d="M1029.136,625.162c0,20.882-14.87,34.574-40.345,34.574h-27.357v-19.741h25.505
	c12.71,0,18.506-7.185,18.506-17.644c0-10.178-5.979-17.392-18.506-17.392h-2.409l20.021-11.108
	C1019.881,597.556,1029.136,608.936,1029.136,625.162z"/>
<path d="M1019.85,570.198c0,11.38-4.873,19.923-15.299,23.654l-20.021,11.108h-23.096v-19.003H983.7
	c8.544,0,13.175-4.872,13.175-12.799c0-7.649-4.845-12.772-14.133-12.772h-21.309v-19.677h23.407
	C1007.789,540.708,1019.85,554.16,1019.85,570.198z"/>
<path style="fill:none;" d="M1270.021,625.162c0,20.882-14.871,34.574-40.346,34.574h-27.357v-19.741h25.506
	c12.708,0,18.505-7.185,18.505-17.644c0-0.793-0.038-1.563-0.112-2.313h23.483C1269.914,621.688,1270.021,623.394,1270.021,625.162z
	"/>
<path d="M1269.699,620.039h-23.483c-0.856-8.939-6.841-15.079-18.393-15.079h-25.506v-19.003h22.268
	c8.544,0,13.174-4.872,13.174-12.799c0-7.649-4.845-12.772-14.133-12.772h-21.309v-19.677h23.407
	c22.948,0,35.009,13.452,35.009,29.49c0,11.38-4.872,19.923-15.3,23.654C1259.094,597.155,1267.934,606.549,1269.699,620.039z"/>
<path style="fill:none;" d="M1494.933,654.067c-6.403,3.662-14.609,5.669-24.375,5.669H1443.2v-19.741h25.508
	c2.248,0,4.28-0.226,6.106-0.658L1494.933,654.067z"/>
<path d="M1510.904,625.162c0,12.879-5.658,23.023-15.972,28.905l-20.118-14.73c8.474-1.992,12.397-8.378,12.397-16.985
	c0-10.178-5.979-17.392-18.504-17.392H1443.2v-19.003h22.269c8.542,0,13.174-4.872,13.174-12.799
	c0-7.649-4.846-12.772-14.132-12.772H1443.2v-19.677h23.408c22.949,0,35.009,13.452,35.009,29.49
	c0,11.38-4.871,19.923-15.298,23.654C1501.648,597.556,1510.904,608.936,1510.904,625.162z"/>
<path d="M1751.788,625.162c0,20.882-14.871,34.574-40.346,34.574h-27.359v-19.741h25.507c12.709,0,18.507-7.185,18.507-17.644
	c0-10.178-5.98-17.392-18.507-17.392h-25.507v-19.003h22.269c8.544,0,13.174-4.872,13.174-12.799
	c0-7.649-4.844-12.772-14.131-12.772h-21.312v-19.677h23.409c22.948,0,35.008,13.452,35.008,29.49
	c0,11.38-4.87,19.923-15.299,23.654C1742.532,597.556,1751.788,608.936,1751.788,625.162z"/>
<path style="fill:none;" d="M-602.026,597.803c0,56.784-44.044,103.173-99.812,106.969v-21.504
	c43.921-3.698,78.404-40.526,78.404-85.433c0-47.379-38.337-85.781-85.652-85.781c-47.315,0-85.653,38.402-85.653,85.75
	c0,24.355,10.144,46.319,26.433,61.934h-28.183c-12.382-17.487-19.656-38.856-19.656-61.934c0-59.193,47.931-107.183,107.06-107.183
	S-602.026,538.609-602.026,597.803z"/>
<path d="M-724.754,703.846c-29.57-4.342-55.2-20.766-71.735-44.109h28.183c6.071,5.825,12.998,10.765,20.572,14.618
	L-724.754,703.846z"/>
<path style="fill:none;" d="M-361.143,597.803c0,56.784-44.044,103.173-99.812,106.969v-21.504
	c43.921-3.698,78.406-40.526,78.406-85.433c0-47.379-38.339-85.781-85.653-85.781c-13.907,0-27.038,3.319-38.649,9.207v-23.441
	c11.991-4.652,25.021-7.2,38.649-7.2C-409.073,490.62-361.143,538.609-361.143,597.803z"/>
<path d="M-483.87,703.846c-51.726-7.591-91.392-52.16-91.392-106.043c0-45.548,28.381-84.47,68.411-99.983v23.441
	c-27.888,14.137-47.004,43.113-47.004,76.542c0,33.434,19.121,62.367,47.004,76.552L-483.87,703.846z"/>
<path style="fill:none;" d="M-120.259,597.803c0,56.784-44.044,103.173-99.813,106.969v-21.504
	c43.922-3.698,78.406-40.526,78.406-85.433c0-21.936-8.221-41.957-21.753-57.127h26.721
	C-126.281,557.237-120.259,576.813-120.259,597.803z"/>
<path d="M-136.698,540.708h-26.721c-15.68-17.584-38.494-28.654-63.899-28.654c-47.315,0-85.653,38.402-85.653,85.75
	c0,33.434,19.121,62.367,47.004,76.552l22.981,29.491c-51.725-7.591-91.391-52.16-91.391-106.043
	c0-59.193,47.931-107.183,107.06-107.183C-189.151,490.62-155.652,510.613-136.698,540.708z"/>
<path style="fill:none;" d="M100.685,660.127c-18.104,25.309-46.946,42.4-79.872,44.645v-21.504
	c25.999-2.188,48.69-15.988,62.875-36.196L100.685,660.127z"/>
<path d="M120.625,597.803c0,23.253-7.387,44.767-19.94,62.324l-16.996-13.056c9.786-13.928,15.53-30.908,15.53-49.237
	c0-47.379-38.338-85.781-85.653-85.781c-47.314,0-85.652,38.402-85.652,85.75c0,33.434,19.12,62.367,47.004,76.552l22.979,29.491
	c-51.725-7.591-91.391-52.16-91.391-106.043c0-59.193,47.931-107.183,107.06-107.183S120.625,538.609,120.625,597.803z"/>
<path d="M361.508,597.803c0,56.784-44.044,103.173-99.811,106.969v-21.504c43.921-3.698,78.405-40.526,78.405-85.433
	c0-47.379-38.338-85.781-85.653-85.781s-85.653,38.402-85.653,85.75c0,33.434,19.12,62.367,47.004,76.552l22.981,29.491
	c-51.727-7.591-91.392-52.16-91.392-106.043c0-59.193,47.931-107.183,107.06-107.183S361.508,538.609,361.508,597.803z"/>
<path d="M602.393,597.803c0,56.784-44.044,103.173-99.812,106.969v-21.504c43.921-3.698,78.405-40.526,78.405-85.433
	c0-47.379-38.337-85.781-85.653-85.781c-47.315,0-85.653,38.402-85.653,85.75c0,33.434,19.121,62.367,47.005,76.552l22.98,29.491
	c-51.727-7.591-91.392-52.16-91.392-106.043c0-59.193,47.931-107.183,107.059-107.183
	C554.462,490.62,602.393,538.609,602.393,597.803z"/>
<path d="M843.275,597.803c0,56.784-44.043,103.173-99.811,106.969v-21.504c43.921-3.698,78.404-40.526,78.404-85.433
	c0-47.379-38.338-85.781-85.652-85.781s-85.653,38.402-85.653,85.75c0,33.434,19.121,62.367,47.005,76.552l22.98,29.491
	c-51.725-7.591-91.392-52.16-91.392-106.043c0-59.193,47.931-107.183,107.06-107.183S843.275,538.609,843.275,597.803z"/>
<path d="M1084.16,597.803c0,56.784-44.043,103.173-99.812,106.969v-21.504c43.921-3.698,78.405-40.526,78.405-85.433
	c0-47.379-38.339-85.781-85.653-85.781c-47.315,0-85.653,38.402-85.653,85.75c0,33.434,19.122,62.367,47.005,76.552l22.981,29.491
	c-51.728-7.591-91.393-52.16-91.393-106.043c0-59.193,47.931-107.183,107.06-107.183S1084.16,538.609,1084.16,597.803z"/>
<path d="M1325.044,597.803c0,56.784-44.045,103.173-99.813,106.969v-21.504c43.921-3.698,78.404-40.526,78.404-85.433
	c0-47.379-38.336-85.781-85.651-85.781s-85.654,38.402-85.654,85.75c0,33.434,19.121,62.367,47.006,76.552l22.981,29.491
	c-51.727-7.591-91.393-52.16-91.393-106.043c0-59.193,47.931-107.183,107.06-107.183S1325.044,538.609,1325.044,597.803z"/>
<path d="M1565.928,597.803c0,56.784-44.044,103.173-99.812,106.969v-21.504c43.921-3.698,78.404-40.526,78.404-85.433
	c0-47.379-38.336-85.781-85.652-85.781c-47.315,0-85.653,38.402-85.653,85.75c0,33.434,19.121,62.367,47.004,76.552l22.981,29.491
	c-51.726-7.591-91.393-52.16-91.393-106.043c0-59.193,47.932-107.183,107.061-107.183S1565.928,538.609,1565.928,597.803z"/>
<path d="M1806.812,597.803c0,56.784-44.045,103.173-99.813,106.969v-21.504c43.922-3.698,78.406-40.526,78.406-85.433
	c0-47.379-38.339-85.781-85.654-85.781c-47.314,0-85.651,38.402-85.651,85.75c0,33.434,19.119,62.367,47.003,76.552l22.98,29.491
	c-51.725-7.591-91.391-52.16-91.391-106.043c0-59.193,47.931-107.183,107.059-107.183
	C1758.88,490.62,1806.812,538.609,1806.812,597.803z"/>
<path d="M3867.706,490.619c-59.127,0-107.06,47.994-107.06,107.183c0,53.884,39.666,98.454,91.391,106.042v-44.107h27.358
	c25.478,0,40.344-13.694,40.344-34.575c0-16.226-9.252-27.606-24.582-31.308c10.425-3.732,15.299-12.276,15.299-23.658
	c0-16.038-12.06-29.487-35.008-29.487h-46.391v133.646c-27.882-14.188-47.006-43.119-47.006-76.554
	c0-47.346,38.34-85.747,85.654-85.747c47.313,0,85.654,38.4,85.654,85.777c0,44.909-34.485,81.736-78.406,85.438v21.499
	c55.766-3.795,99.812-50.184,99.812-106.968C3974.766,538.612,3926.835,490.619,3867.706,490.619z M3852.037,560.388h21.313
	c9.283,0,14.127,5.12,14.127,12.769c0,7.927-4.628,12.8-13.172,12.8h-22.269V560.388z M3852.037,604.956h25.509
	c12.523,0,18.506,7.218,18.506,17.397c0,10.455-5.798,17.643-18.506,17.643h-25.509V604.956z"/>
<path style="fill:none;stroke:#05BDCD;stroke-width:10.7059;stroke-miterlimit:10;" d="M1940.636,490.619
	c-59.129,0-107.059,47.994-107.059,107.183c0,53.884,39.664,98.454,91.391,106.042v-44.107h27.358
	c25.476,0,40.343-13.694,40.343-34.575c0-16.226-9.252-27.606-24.582-31.308c10.425-3.732,15.298-12.276,15.298-23.658
	c0-16.038-12.06-29.487-35.007-29.487h-46.389v133.646c-27.884-14.188-47.007-43.119-47.007-76.554
	c0-47.346,38.338-85.747,85.653-85.747c47.313,0,85.654,38.4,85.654,85.777c0,44.909-34.484,81.736-78.406,85.438v21.499
	c55.766-3.795,99.813-50.184,99.813-106.968C2047.696,538.612,1999.764,490.619,1940.636,490.619z M1924.968,560.388h21.313
	c9.284,0,14.127,5.12,14.127,12.769c0,7.927-4.627,12.8-13.171,12.8h-22.269V560.388z M1924.968,604.956h25.508
	c12.522,0,18.506,7.218,18.506,17.397c0,10.455-5.799,17.643-18.506,17.643h-25.508V604.956z"/>
<path style="fill:none;stroke:#05BDCD;stroke-width:8.0295;stroke-miterlimit:10;" d="M2181.519,490.619
	c-59.128,0-107.059,47.994-107.059,107.183c0,53.884,39.665,98.454,91.39,106.042v-44.107h27.36
	c25.477,0,40.343-13.694,40.343-34.575c0-16.226-9.252-27.606-24.582-31.308c10.425-3.732,15.298-12.276,15.298-23.658
	c0-16.038-12.06-29.487-35.007-29.487h-46.39v133.646c-27.883-14.188-47.007-43.119-47.007-76.554
	c0-47.346,38.339-85.747,85.653-85.747c47.315,0,85.654,38.4,85.654,85.777c0,44.909-34.483,81.736-78.405,85.438v21.499
	c55.766-3.795,99.811-50.184,99.811-106.968C2288.578,538.612,2240.647,490.619,2181.519,490.619z M2165.85,560.388h21.314
	c9.284,0,14.126,5.12,14.126,12.769c0,7.927-4.627,12.8-13.171,12.8h-22.27V560.388z M2165.85,604.956h25.508
	c12.524,0,18.508,7.218,18.508,17.397c0,10.455-5.8,17.643-18.508,17.643h-25.508V604.956z"/>
<path style="fill:none;stroke:#05BDCD;stroke-width:5.353;stroke-miterlimit:10;" d="M2422.404,490.619
	c-59.129,0-107.06,47.994-107.06,107.183c0,53.884,39.664,98.454,91.39,106.042v-44.107h27.358
	c25.477,0,40.344-13.694,40.344-34.575c0-16.226-9.252-27.606-24.582-31.308c10.426-3.732,15.298-12.276,15.298-23.658
	c0-16.038-12.06-29.487-35.008-29.487h-46.388v133.646c-27.885-14.188-47.007-43.119-47.007-76.554
	c0-47.346,38.339-85.747,85.654-85.747c47.314,0,85.652,38.4,85.652,85.777c0,44.909-34.483,81.736-78.404,85.438v21.499
	c55.766-3.795,99.81-50.184,99.81-106.968C2529.462,538.612,2481.533,490.619,2422.404,490.619z M2406.734,560.388h21.313
	c9.285,0,14.127,5.12,14.127,12.769c0,7.927-4.627,12.8-13.171,12.8h-22.27V560.388z M2406.734,604.956h25.509
	c12.522,0,18.505,7.218,18.505,17.397c0,10.455-5.798,17.643-18.505,17.643h-25.509V604.956z"/>
<path style="fill:none;stroke:#05BDCD;stroke-width:2.6765;stroke-miterlimit:10;" d="M2663.287,490.619
	c-59.127,0-107.061,47.994-107.061,107.183c0,53.884,39.666,98.454,91.391,106.042v-44.107h27.359
	c25.478,0,40.344-13.694,40.344-34.575c0-16.226-9.252-27.606-24.583-31.308c10.426-3.732,15.3-12.276,15.3-23.658
	c0-16.038-12.06-29.487-35.008-29.487h-46.391v133.646c-27.883-14.188-47.007-43.119-47.007-76.554
	c0-47.346,38.34-85.747,85.655-85.747c47.313,0,85.653,38.4,85.653,85.777c0,44.909-34.484,81.736-78.405,85.438v21.499
	c55.766-3.795,99.812-50.184,99.812-106.968C2770.347,538.612,2722.416,490.619,2663.287,490.619z M2647.617,560.388h21.314
	c9.283,0,14.127,5.12,14.127,12.769c0,7.927-4.628,12.8-13.173,12.8h-22.269V560.388z M2647.617,604.956h25.51
	c12.522,0,18.506,7.218,18.506,17.397c0,10.455-5.799,17.643-18.506,17.643h-25.51V604.956z"/>
<path style="fill:none;stroke:#05BDCD;stroke-width:0.5353;stroke-miterlimit:10;" d="M2904.171,490.619
	c-59.128,0-107.06,47.994-107.06,107.183c0,53.884,39.665,98.454,91.392,106.042v-44.107h27.357
	c25.477,0,40.345-13.694,40.345-34.575c0-16.226-9.254-27.606-24.582-31.308c10.425-3.732,15.298-12.276,15.298-23.658
	c0-16.038-12.06-29.487-35.007-29.487h-46.391v133.646c-27.883-14.188-47.007-43.119-47.007-76.554
	c0-47.346,38.34-85.747,85.654-85.747s85.653,38.4,85.653,85.777c0,44.909-34.483,81.736-78.404,85.438v21.499
	c55.766-3.795,99.811-50.184,99.811-106.968C3011.23,538.612,2963.3,490.619,2904.171,490.619z M2888.503,560.388h21.313
	c9.283,0,14.126,5.12,14.126,12.769c0,7.927-4.627,12.8-13.171,12.8h-22.269V560.388z M2888.503,604.956h25.507
	c12.523,0,18.508,7.218,18.508,17.397c0,10.455-5.8,17.643-18.508,17.643h-25.507V604.956z"/>
<path style="fill-opacity:0.2;stroke:#000000;stroke-width:0.5353;stroke-miterlimit:10;" d="M3145.054,490.619
	c-59.127,0-107.06,47.994-107.06,107.183c0,53.884,39.666,98.454,91.392,106.042v-44.107h27.358
	c25.477,0,40.345-13.694,40.345-34.575c0-16.226-9.254-27.606-24.583-31.308c10.426-3.732,15.298-12.276,15.298-23.658
	c0-16.038-12.06-29.487-35.008-29.487h-46.39v133.646c-27.883-14.188-47.005-43.119-47.005-76.554
	c0-47.346,38.338-85.747,85.652-85.747s85.655,38.4,85.655,85.777c0,44.909-34.483,81.736-78.406,85.438v21.499
	c55.766-3.795,99.811-50.184,99.811-106.968C3252.113,538.612,3204.183,490.619,3145.054,490.619z M3129.386,560.388h21.313
	c9.285,0,14.127,5.12,14.127,12.769c0,7.927-4.628,12.8-13.171,12.8h-22.27V560.388z M3129.386,604.956h25.508
	c12.522,0,18.508,7.218,18.508,17.397c0,10.455-5.799,17.643-18.508,17.643h-25.508V604.956z"/>
<path style="fill-opacity:0.5;stroke:#000000;stroke-width:10.7059;stroke-miterlimit:10;" d="M3385.938,490.619
	c-59.129,0-107.06,47.994-107.06,107.183c0,53.884,39.666,98.454,91.391,106.042v-44.107h27.359
	c25.477,0,40.343-13.694,40.343-34.575c0-16.226-9.252-27.606-24.581-31.308c10.424-3.732,15.298-12.276,15.298-23.658
	c0-16.038-12.06-29.487-35.008-29.487h-46.39v133.646c-27.882-14.188-47.007-43.119-47.007-76.554
	c0-47.346,38.34-85.747,85.654-85.747s85.654,38.4,85.654,85.777c0,44.909-34.484,81.736-78.406,85.438v21.499
	c55.766-3.795,99.812-50.184,99.812-106.968C3492.998,538.612,3445.067,490.619,3385.938,490.619z M3370.27,560.388h21.314
	c9.283,0,14.125,5.12,14.125,12.769c0,7.927-4.626,12.8-13.17,12.8h-22.27V560.388z M3370.27,604.956h25.509
	c12.522,0,18.506,7.218,18.506,17.397c0,10.455-5.8,17.643-18.506,17.643h-25.509V604.956z"/>
<path style="fill-opacity:0.8;stroke:#000000;stroke-width:10.7059;stroke-miterlimit:10;" d="M3626.821,490.619
	c-59.127,0-107.058,47.994-107.058,107.183c0,53.884,39.664,98.454,91.39,106.042v-44.107h27.358
	c25.478,0,40.345-13.694,40.345-34.575c0-16.226-9.253-27.606-24.583-31.308c10.425-3.732,15.298-12.276,15.298-23.658
	c0-16.038-12.06-29.487-35.007-29.487h-46.389v133.646c-27.885-14.188-47.008-43.119-47.008-76.554
	c0-47.346,38.339-85.747,85.653-85.747s85.654,38.4,85.654,85.777c0,44.909-34.483,81.736-78.405,85.438v21.499
	c55.766-3.795,99.811-50.184,99.811-106.968C3733.881,538.612,3685.95,490.619,3626.821,490.619z M3611.153,560.388h21.313
	c9.285,0,14.127,5.12,14.127,12.769c0,7.927-4.626,12.8-13.17,12.8h-22.27V560.388z M3611.153,604.956h25.508
	c12.523,0,18.507,7.218,18.507,17.397c0,10.455-5.799,17.643-18.507,17.643h-25.508V604.956z"/>
<line style="fill:none;" x1="-3133.628" y1="585.928" x2="-3133.628" y2="560.298"/>
<line style="fill:none;" x1="-2892.745" y1="585.928" x2="-2892.745" y2="560.298"/>
<line style="fill:none;" x1="-2651.861" y1="585.928" x2="-2651.861" y2="560.298"/>
<line style="fill:none;" x1="-2410.978" y1="585.928" x2="-2410.978" y2="560.298"/>
<line style="fill:none;" x1="-2170.094" y1="585.928" x2="-2170.094" y2="560.298"/>
<line style="fill:none;" x1="-1929.21" y1="585.928" x2="-1929.21" y2="560.298"/>
<line style="fill:none;" x1="-3133.628" y1="640.094" x2="-3133.628" y2="604.978"/>
<line style="fill:none;" x1="-2892.745" y1="640.094" x2="-2892.745" y2="604.978"/>
<line style="fill:none;" x1="-2651.861" y1="640.094" x2="-2651.861" y2="604.978"/>
<line style="fill:none;" x1="-2410.978" y1="640.094" x2="-2410.978" y2="604.978"/>
<line style="fill:none;" x1="-2170.094" y1="640.094" x2="-2170.094" y2="604.978"/>
<line style="fill:none;" x1="-1929.21" y1="640.094" x2="-1929.21" y2="604.978"/>
<polygon style="fill:none;" points="-3133.628,674.535 -3133.628,704.094 -3156.663,674.535 "/>
<polygon style="fill:none;" points="-2892.745,674.535 -2892.745,704.094 -2915.78,674.535 "/>
<polygon style="fill:none;" points="-2651.861,674.535 -2651.861,704.094 -2674.896,674.535 "/>
<polygon style="fill:none;" points="-2410.978,674.535 -2410.978,704.094 -2434.012,674.535 "/>
<polygon style="fill:none;" points="-2170.094,674.535 -2170.094,704.094 -2193.128,674.535 "/>
<polygon style="fill:none;" points="-1929.21,674.535 -1929.21,704.094 -1952.244,674.535 "/>
<line style="fill:none;" x1="-3133.628" y1="674.535" x2="-3133.628" y2="659.882"/>
<line style="fill:none;" x1="-2892.745" y1="674.535" x2="-2892.745" y2="659.882"/>
<line style="fill:none;" x1="-2651.861" y1="674.535" x2="-2651.861" y2="659.882"/>
<line style="fill:none;" x1="-2410.978" y1="674.535" x2="-2410.978" y2="659.882"/>
<line style="fill:none;" x1="-2170.094" y1="674.535" x2="-2170.094" y2="659.882"/>
<line style="fill:none;" x1="-1929.21" y1="674.535" x2="-1929.21" y2="659.882"/>
<line style="fill:none;" x1="-1206.521" y1="703.846" x2="-1206.521" y2="659.736"/>
<line style="fill:none;" x1="-3132.411" y1="674.535" x2="-3133.628" y2="674.535"/>
<line style="fill:none;" x1="-2891.527" y1="674.535" x2="-2892.745" y2="674.535"/>
<line style="fill:none;" x1="-2650.644" y1="674.535" x2="-2651.861" y2="674.535"/>
<line style="fill:none;" x1="-2409.76" y1="674.535" x2="-2410.978" y2="674.535"/>
<line style="fill:none;" x1="-2168.875" y1="674.535" x2="-2170.094" y2="674.535"/>
<line style="fill:none;" x1="-1927.992" y1="674.535" x2="-1929.21" y2="674.535"/>
<line style="fill:none;" x1="-796.489" y1="659.736" x2="-807.849" y2="659.736"/>
<line style="fill:none;" x1="-766.095" y1="659.736" x2="-768.306" y2="659.736"/>
<line style="fill:none;" x1="-506.851" y1="497.819" x2="-506.851" y2="482.826"/>
<line style="fill:none;" x1="-506.851" y1="534.215" x2="-506.851" y2="521.26"/>
<line style="fill:none;" x1="-110.356" y1="540.708" x2="-136.698" y2="540.708"/>
<line style="fill:none;" x1="-163.419" y1="540.708" x2="-196.003" y2="540.708"/>
<line style="fill:none;" x1="114.468" y1="670.715" x2="100.685" y2="660.127"/>
<line style="fill:none;" x1="83.689" y1="647.071" x2="77.533" y2="642.345"/>
<line style="fill:none;" x1="524.822" y1="540.708" x2="522.2" y2="544.717"/>
<line style="fill:none;" x1="510.3" y1="562.912" x2="507.158" y2="567.719"/>
<line style="fill:none;" x1="766.449" y1="594.628" x2="764" y2="593.729"/>
<line style="fill:none;" x1="984.529" y1="604.96" x2="979.869" y2="607.545"/>
<line style="fill:none;" x1="1277.493" y1="620.039" x2="1269.699" y2="620.039"/>
<line style="fill:none;" x1="1246.216" y1="620.039" x2="1239.305" y2="620.039"/>
<line style="fill:none;" x1="1502.671" y1="659.736" x2="1494.933" y2="654.067"/>
<line style="fill:none;" x1="1474.814" y1="639.337" x2="1472.342" y2="637.521"/>
</svg>