<?xml version="1.0" encoding="utf-8"?>
<!-- Generator: Adobe Illustrator 16.0.0, SVG Export Plug-In . SVG Version: 6.00 Build 0)  -->
<!DOCTYPE svg PUBLIC "-//W3C//DTD SVG 1.1//EN" "http://www.w3.org/Graphics/SVG/1.1/DTD/svg11.dtd">
<svg version="1.1" id="Layer_1" xmlns="http://www.w3.org/2000/svg" xmlns:xlink="http://www.w3.org/1999/xlink" x="0px" y="0px"
	 width="250px" height="250px" viewBox="175.5 1075.5 250 250" enable-background="new 175.5 1075.5 250 250" xml:space="preserve">
<path id="burst-2" fill="none" stroke="#05BDCD" stroke-width="10.7059" stroke-miterlimit="10" d="M300.499,1093.425
	c-59.129,0-107.059,47.994-107.059,107.184c0,53.883,39.664,98.453,91.391,106.041v-44.107h27.358
	c25.476,0,40.343-13.693,40.343-34.574c0-16.227-9.252-27.606-24.582-31.308c10.425-3.732,15.298-12.276,15.298-23.657
	c0-16.039-12.06-29.487-35.007-29.487h-46.389v133.646c-27.884-14.188-47.007-43.119-47.007-76.553
	c0-47.346,38.338-85.746,85.653-85.746c47.313,0,85.654,38.4,85.654,85.777c0,44.908-34.484,81.734-78.406,85.438v21.498
	c55.766-3.795,99.813-50.184,99.813-106.967C407.56,1141.419,359.627,1093.425,300.499,1093.425z M284.831,1163.194h21.313
	c9.284,0,14.127,5.12,14.127,12.77c0,7.927-4.627,12.801-13.171,12.801h-22.269V1163.194z M284.831,1207.763h25.508
	c12.522,0,18.506,7.217,18.506,17.396c0,10.455-5.799,17.643-18.506,17.643h-25.508V1207.763z"/>
</svg>
