<?xml version="1.0" encoding="utf-8"?>
<!-- Generator: Adobe Illustrator 16.0.0, SVG Export Plug-In . SVG Version: 6.00 Build 0)  -->
<!DOCTYPE svg PUBLIC "-//W3C//DTD SVG 1.1//EN" "http://www.w3.org/Graphics/SVG/1.1/DTD/svg11.dtd">
<svg version="1.1" id="Layer_1" xmlns="http://www.w3.org/2000/svg" xmlns:xlink="http://www.w3.org/1999/xlink" x="0px" y="0px"
	 width="250px" height="250px" viewBox="175.5 1075.5 250 250" enable-background="new 175.5 1075.5 250 250" xml:space="preserve">
<path  id="burst-3" fill="none" stroke="#05BDCD" stroke-width="0.5353" stroke-miterlimit="10" d="M300.5,1095.951
	c-59.128,0-107.06,47.994-107.06,107.183c0,53.885,39.665,98.455,91.392,106.043v-44.107h27.357
	c25.477,0,40.345-13.695,40.345-34.576c0-16.225-9.254-27.605-24.582-31.308c10.425-3.732,15.298-12.275,15.298-23.656
	c0-16.039-12.06-29.488-35.007-29.488h-46.391v133.647c-27.883-14.189-47.007-43.119-47.007-76.555
	c0-47.345,38.34-85.746,85.654-85.746s85.653,38.401,85.653,85.777c0,44.908-34.483,81.736-78.404,85.438v21.5
	c55.766-3.795,99.811-50.184,99.811-106.969C407.56,1143.945,359.629,1095.951,300.5,1095.951z M284.832,1165.721h21.313
	c9.283,0,14.126,5.119,14.126,12.77c0,7.926-4.627,12.801-13.171,12.801h-22.269V1165.721z M284.832,1210.288h25.507
	c12.523,0,18.508,7.219,18.508,17.398c0,10.455-5.8,17.643-18.508,17.643h-25.507V1210.288z"/>
</svg>
